<svg width="17" height="16" viewBox="0 0 17 16" fill="none" xmlns="http://www.w3.org/2000/svg">
    <path
        d="M14.1667 2L14.06 2.02L10.5 3.4L6.5 2L2.74 3.26667C2.6 3.31333 2.5 3.43333 2.5 3.58667V13.6667C2.5 13.8533 2.64667 14 2.83333 14L2.94 13.98L6.5 12.6L10.5 14L14.26 12.7333C14.4 12.6867 14.5 12.5667 14.5 12.4133V2.33333C14.5 2.14667 14.3533 2 14.1667 2ZM7.16667 3.64667L9.83333 4.58V12.3533L7.16667 11.42V3.64667ZM3.83333 4.30667L5.83333 3.63333V11.4333L3.83333 12.2067V4.30667ZM13.1667 11.6933L11.1667 12.3667V4.57333L13.1667 3.8V11.6933Z"
        fill="#2578E5"></path>
</svg>