<?xml version="1.0" encoding="utf-8"?>
<!-- Generator: Adobe Illustrator 19.2.1, SVG Export Plug-In . SVG Version: 6.00 Build 0)  -->
<svg version="1.1" id="layer" xmlns="http://www.w3.org/2000/svg" xmlns:xlink="http://www.w3.org/1999/xlink" x="0px" y="0px"
	 viewBox="0 0 652 652" style="enable-background:new 0 0 652 652;" xml:space="preserve">
<style type="text/css">
	.st0{fill:#231815;}
	.st1{fill:#FFFFFF;}
	.st2{fill:#EC1C24;}
</style>
<path class="st0" d="M606.7,381.5l1.9,0l2.7,0.4l0.9,1.7l-1.3,1.9l-2.2,0.3h-2.1 M616.3,392.7c-1.9,1.8-4.3,2.8-7.1,2.8
	c-2.8,0-5.2-0.9-7.2-2.7c-1.9-1.8-2.9-4.1-2.9-6.7l0.3-1.4c1.8-1.4,3.5-2.8,5-4.3l0,11.6l2.3,0l0-4.7h1.8l2.5,0.4
	c0.8,0.4,1.2,1.4,1.2,2.7v1l0,0.4l0,0.1l0,0.1h2.1l-0.1-0.2l-0.1-0.6l0-0.9v-0.9l-0.7-1.8l-2.2-1.2l1.8-0.6l1.3-2.4
	c0-1.5-0.7-2.5-2-3c-0.7-0.3-1.9-0.4-3.5-0.4l-4.1,0l3-3.2l1.3-0.2c2.8,0,5.2,0.9,7.2,2.7c2,1.8,3,4,3,6.6
	C619.3,388.6,618.3,390.9,616.3,392.7 M296.9,314.3l0-2.4l3.1,4L296.9,314.3 M79,339.9l0.2-1.3c0.2-2.1,0.2-4,0-5.7
	c5.4,2.9,10.7,6,15.4,9c1.3,0.8,3.3,4.6,3.4,6.4c0.6,10.6-4.2,13.6-8.1,16l-1.7,1.1c-2.6,1.8-6.7,3.1-9.7,2.6
	c-10.7-1.6-14.2-8-15.2-10.3C73.5,354.1,78,345,79,339.9 M75.9,270.1h0.3L77,277c0.6,0.2,2.4,1.4,5.5,3.6c1.2,0.9,3.1,3.2,5,5.8
	l-2.4-1.2c-3.3-1.7-8.3-4.3-9.7-5.6l-0.7-1.5l0-1l1.5-0.1L75.9,270.1z M519.9,301.2c2,4.6,4.6,8.9,7.7,12.4
	c-2.9,0.7-5.4,1.8-7.7,3.1L519.9,301.2z M567.4,286.7c-3.4-1.7-8.6-4.4-10-5.7l-0.5-1.7l2.4-0.9c1.2,0.4,3.5,1.4,5.3,2.7
	c2,1.4,5.1,4.7,7.5,8L567.4,286.7z M571,365.2l-1.2,0.7c-1.4,0.8-6.4,2.4-8.9,2.4c-10.7-2-14.4-8-15.5-10.4
	c10.1-3.6,14.6-12.7,15.6-17.8l0.2-1.3c0.2-1.6,0.2-3.1,0.1-4.5c5.4,2.9,10.7,6,15.4,9c1.8,1.2,3.3,4.2,3.4,5.3
	C580.7,359.5,575.1,362.8,571,365.2 M617.5,378.3c-2.3-2.1-5-3.1-8.3-3.1c9.7-12.2,11-26,10-36.7c-0.8-7.3-3.9-18.4-10.6-25.6
	c-3.3-3.5-7.3-6.9-11.9-10.1l2-1.6c4.1-4.2,4.7-9.8,4.6-14.3l-4.3-27c-1.5-6.9-7.1-11.7-13.7-11.7c-2.5,0-6.2,0.7-9.9,4.1l-1-0.5
	c-5.7-2.7-11.7-3-15.6-3h-1.1c-8.2,0.1-15.5,2.1-22,5.7c-3.3-3.6-7.8-5.9-12.7-6.1l-0.9,0c-2.7,0-5.2,0.6-7.4,1.6
	c-1.5-0.4-3.2-0.6-5.2-0.6l-14.4,0c-8,0-11.9,3.5-13.8,6.6c-5-5.8-10.4-6.5-12.9-6.5l-21.3,0.1l-2,1.1c-3-1.8-6.4-2.7-9.7-2.8
	c0,0-37.7,0.1-40.3,0.1c-3.2,0-6,0.8-8.4,2c-2.2-1.4-4.7-2.2-7.5-2.2c-3,0-5.6,0.9-7.7,2.1l-2.9-1l-0.8-0.2
	c-2.1-0.6-5.2-1.4-8.9-1.4c-6.1,0-12.5,1.7-17.6,4.5c-2.3-1.8-5.7-3.3-10.8-3.3l-14.4,0c-6.3,0-10.5,2.4-12.9,5.5
	c-3.6-3.1-7.6-4.7-10.7-5.2l-1-0.2l-19.1,0l-2.4,0.3l-3,1.1c-3-1.7-6.4-2.6-9.7-2.7c0,0-54.4,0.1-57.2,0.1c-4.7,0-10.1,2.1-13.6,6.1
	c-2.7-3-6.6-4.8-10-5.6l-1.3-0.3l-23.4,0.1l-2.4,0.3c-2.3,0.5-4.3,1.3-6.1,2.4l-2.6-2.5l-32.9-0.2l-1,0c-4,0.3-7.2,1.6-9.7,2.9
	c-1.4-0.6-3.1-1.2-5.1-1.8c-6.2-1.8-10-2.6-16.1-2.6h0c-10.8,0.1-19.6,3.5-27.9,10.5c-8.8,7.5-13.4,17.4-13.4,28.7
	c0,9,5.2,20.9,12.1,28.1c-17.8,4.1-25,19.1-25.3,29.5c-1.7,33.2,23,48.6,36.1,52.1c7.2,2.1,14.2,3.2,21,3.2h0.2
	c11.8,0,23.3-3.4,34-10c5.1-3.1,14-9.8,19.7-21.1c3.5,3.3,7.6,3.6,9.2,3.6c5.9,0,11.1-3.7,14.4-10.1l0.8-1.8
	c2.2-6.8,5-15.4,7.7-23.7c2.1,6.5,3.6,11.3,3.8,12.6c1.4,8.5,7.7,12.4,13.3,12.4c5,0,9.5-2.8,12.5-7.7l1.1-2.3
	c0.4-1.1,1.1-3.3,2.2-6.5l0.2,0.5c1.5,4.1,5.6,8.5,12.7,8.5l2.8-0.2c31.3-4.4,45.6-7.7,52.5-10.9c1.7,0.7,3.6,1.3,5.6,1.4l1.1,0.1
	l20.8-2.1l1.6-0.3c8.4-2,11.7-7.9,12-12.7c0.1-1,0-2.6-0.5-4.4l8.4,11.1l1,1.2c1.4,1.4,5.6,5.7,12,5.7c2.8,0,5.4-0.8,7.6-2.4
	c2.5,2.1,5.5,3.4,8.9,3.4h0c2.4,0,5.4-0.6,8.3-2.8c3.3,1.3,8.4,2.9,12.6,2.9l1.2-0.1c6.2-0.4,11.2-1.4,16.3-4.2
	c2.2,2.2,5.6,4.2,11,4.2l0.8,0c11.7-0.4,22.8,1,31.5,2c5.2,0.6,9.4,1.1,12.6,1.1l1.9-0.1c2.3,2.4,6.1,4.7,12.4,5.3l12.6,2.2l0.8,0.1
	c0,0,1.2,0.1,2.6,0.1c10.3,0,13.2-7.1,13.8-9.3c0.2-0.7,0.5-2,0.5-3.7l10.4,18.4l1.1,1.2c1.4,1.4,5.6,5.7,12,5.7h0l0.4,0
	c7.1,17.8,23,26.9,32.6,29.4c7.2,2.1,14.3,3.2,21.1,3.2h0.1c11.8-0.1,23.3-3.4,34-10l3.2-2.1l0,0c0,3.1,1.1,5.6,3.4,7.8
	c2.3,2.1,5.1,3.2,8.3,3.2c3.3,0,6-1.1,8.3-3.2c2.3-2.1,3.4-4.7,3.4-7.7C620.9,383,619.7,380.5,617.5,378.3"/>
<path class="st1" d="M587.4,326.8c-5.8-3.8-12.5-7.6-19.2-11.1l-15.6-8.1c-4.2-2.2-7.4-4.4-9.7-6.4c-3.7-3.5-6.9-11.1-6.9-14.9
	c0-2.8,0.5-5,1.1-6.8l0.1,1.2c0.8,4.9,2,10,6.4,14.2c3.5,3.4,8.7,6.1,14.8,9.2l16.9,8.7c9.8,5.1,15.7,10.1,18.8,13.4
	c2.5,2.7,4.8,8.9,5.3,14.2c0.3,2.5,0.3,4.9,0.1,7C599.3,339.7,594.2,331.3,587.4,326.8 M573.4,369.2l-1.1,0.7
	c-1.6,1-7.7,3.1-11.3,3.1l-0.8,0c-14-2.6-18.8-11.8-19.5-14.7l0.1-1.4l0.2-2.1l1-0.4c9.6-2.4,13.7-10.5,14.6-15l0.1-0.8
	c0.6-6.1-1-10.4-2.9-13.2l7.4,3.9c6.3,3.3,12.6,6.9,18,10.4c3,2,5.3,6.3,5.5,8.9C585.4,362,577.6,366.7,573.4,369.2 M538.3,339.6
	c-11.6,2.9-12.3,12.7-12.5,16l-0.1,0.7c-0.3,1.3-0.2,2.8,0.1,4.3c-2.1-4.4-3.5-9.9-3.1-16.8c0-1.2,0.8-11.6,14.8-11.8l3.6,1.3
	l0.7,3.2C541.5,337.3,540.6,339.1,538.3,339.6 M515.4,325.6l-0.1-43.2l2.3,5.1l3.4-0.9c0.1,8.2,5.3,19.7,11.8,25.8
	c1.8,1.6,3.8,3.2,6.1,4.7l-1.3-0.1h0C526.9,317,520,320.8,515.4,325.6 M475,286.3c-2.1-4.1-5.2-6.3-8.8-6.3l-3.5,0.2l0-11.3l3.9,0
	c0.4,0.5,0.9,1.3,1.6,2.8l21.1,39.3l1.2,1c0.9,0.8,3.5,2.5,6.7,2.5l3.1-0.5l0.1,17.5L475,286.3z M439.2,289.4l3.4,0.7l4.2-0.3
	l0.9-1.2l0,14c-2.7-1.3-6-1.4-8.4,0.1L439.2,289.4z M424.5,319c-1.5,0-2.9-0.1-4.1-0.2l-0.4,0c0-1.6,0-3.2-0.1-4.7
	c2,2.6,4.8,3.9,7.3,4.1l1.1,0l0.7,0C428.2,318.6,426.8,319,424.5,319 M419.5,273h3.3l2.6,0.9c-1.9,0.6-4.1,1.8-5.7,4.6
	C419.6,276.5,419.6,274.5,419.5,273 M405.2,300.5l0-11.4c0.5,2,1.5,3.9,3,5.5C406.6,296.4,405.6,298.4,405.2,300.5 M388.2,295.1
	l-0.6-0.6c-1.1-1.3-2.4-2.7-4-4.2l0.6,0l3.9-0.1l2-2.4l0,9.9L388.2,295.1 M366.8,278.6c-3-1.7-5-3-6.1-4.2l-1.9-1.9l0-0.2l0.9-0.2
	c1.5,0,1.7,0.1,3,1c5.9,3.8,10,8.3,12.3,11.1L366.8,278.6z M362.6,294.3l-5.5-3.9l1.8,1l7.4,5C365.3,295.8,364.1,295.1,362.6,294.3
	 M362.3,317.1l-1.2-0.2c0,0-3.8-0.7-9.6-7.8c-0.1-0.2-1.9-2.2-5-6.3l-0.5-0.7c-1.8-1.9-4.7-4.3-8.3-4.3l-1.5,0.1l0-5.2l2.3,2.6
	l0.8,0.7c1.3,1.1,2.6,2.3,5.4,3.9l9.6,6.8l0.7,0.4c3.5,1.9,7.3,4.1,8.7,5.3c1.8,1.7,2.2,2.5,2.1,2.6v0.6
	C363.9,317,362.9,317.1,362.3,317.1 M349.1,284.1l0.7,0.7l2.3,2.2c-1.4-0.8-1.8-1.1-2.8-2l-1-0.9l-1.9-2.9L349.1,284.1 M294.8,276.7
	c-1.5-1.6-4.6-4.3-8.6-4.3l-2.6,0.4l0-4.1l0-0.7l5.7,0c0.5,0.3,1.6,1,2.7,2.8l18.2,24.4c0.9,1.1,3.4,3.6,7.1,3.6c0.4,0,2,0,3.8-0.9
	l0,13.6L294.8,276.7z M268.6,290.6l0,11.7c-1.5-1.1-3.3-1.8-5.3-1.8l-1.3,0.1l0-11.3C264.3,290.5,266.5,290.9,268.6,290.6
	 M239.8,284.9c0-3.5-0.1-8.5-0.1-11.5l4.4-0.2l2.6,0.9C242.8,276.4,240.5,280.7,239.8,284.9 M239.4,321.9
	c-0.1-6.2-0.1-12.6-0.1-14.8l0,0.1l0.8,0.4c0.7,6.6,3.5,9.7,6.1,11.2C243.7,320.4,241.2,321.5,239.4,321.9 M224.4,324
	c0,0.6,0,3.3,1.4,6.1l-2.8,0.5c0.2-1.2,0.3-2.5,0.2-3.9L223,268l0-0.8l-0.1-0.5h2.7c-0.6,1.4-1,3-1,4.7c0,3,0.2,17.5,0.2,17.8
	c0.1,2.6,1.2,5.3,3.3,7.4c-2.2,2.3-3.4,5.2-3.8,7.9C224.3,305.1,224.1,306.7,224.4,324 M182,326.4c-3.2-10-7-21.2-8.6-25.9
	c-1.3-4.7-4.5-7.6-8.5-7.9c0.8-2.6,1.6-5.4,2.5-8.3l0.6-2.1l-4.4-15l2.4,0c-0.4,2-0.2,4.2,0.7,6.6l10.2,34.4l0.6,1.4
	c1.8,3.3,4.8,5.3,8.2,5.3l0.3,0C184.7,318.7,183.3,322.6,182,326.4 M147.8,296.7c-3.5-11.1-6.5-21-7.6-25c0.8-0.7,2-1.7,3-3.3
	c1.6,1.8,3.9,3.1,6.2,3.8l2.9,9.8C150.8,287,149.3,292.1,147.8,296.7 M142.1,339c-6.4-21.8-18.9-62-22-71.9l5,0
	c-0.4,1.4-0.5,3.1-0.2,4.9c0.3,2.3,5,18,14,46.6l0.4,0.9c1.4,3,4.3,5,7.4,5.3C145.1,329.8,143.5,334.7,142.1,339 M117.6,346.7
	c-0.6-6.9-5.1-16.6-12.3-21.2c-5.9-3.8-12.4-7.5-19.2-11.1l-15.6-8.1c-4.1-2.2-7.4-4.4-9.7-6.4c-3.7-3.5-6.9-11.1-6.9-14.8
	c0-2.4,0.4-4.6,1.2-6.6c0.1,5.9,2.4,11.2,6.6,15.2c3.4,3.4,8.5,6,14.5,9l17.3,8.9c9.8,5,15.6,10.1,18.7,13.4
	c2.4,2.6,4.8,8.9,5.3,14.2C117.8,341.8,117.8,344.3,117.6,346.7 M92.1,368.3l-1.5,1c-2.5,1.8-8.6,3.8-12.8,3.2
	c-15.1-2.3-18.8-12.9-19.2-14.6l0.1-1.4l0.2-2.1l1-0.4c9.6-2.4,13.7-10.6,14.6-15l0.1-0.8c0.7-7.5-1.9-12.3-4.3-15.1l8.8,4.6
	c6.3,3.3,12.6,6.9,18,10.4c2.7,1.8,5.3,7,5.5,10.1C103.4,361,96.1,365.8,92.1,368.3 M56.3,339.4c-11.6,2.9-12.3,12.8-12.6,16l0,0.6
	c-0.3,1.3-0.2,2.8,0.1,4.4c-2.2-4.4-3.5-9.9-3.1-16.8c0.1-1.2,0.8-11.6,14.8-11.8l3.6,1.3l0.7,3.2C59.4,337.1,58.5,338.8,56.3,339.4
	 M71.5,273.6c1.2-1,1.3-1,5.1-1.2c1.9,0,2.9,0.3,8.5,4.5c3.3,2.4,8.9,10.5,10.9,15.2l0.6,1.3l1,1c1.3,1.3,4.7,4.3,9.1,4.3
	c2.5,0,4.7-0.9,6.5-2.5c1.3,4.2,2.7,8.6,4,13c-4.1-3.4-9.7-7.2-17-11L83,289.2c-4.4-2.3-9-4.6-10.8-6.4c-1.4-1.4-2-2.8-2-4.8
	C70.1,274.8,70.6,274.4,71.5,273.6 M614.6,338.9c-0.7-6.6-3.5-16.6-9.3-22.9c-4-4.2-11.2-10.5-22.9-16.5l-17-8.7
	c-4.6-2.3-9.3-4.7-11.1-6.6c-1-1-1.5-2.5-2-5.3l1.1-2.8c1-0.9,4.7-2.3,6-2.4c1.2,0,5.1,1.6,8,3.7c3.9,2.8,10.8,10.8,12.8,16.6
	l0.4,1.3l0.8,1c1,1.3,3.8,4.2,8,4.2c2.3,0,4.5-0.9,6.2-2.6c2.9-2.9,3.3-7.3,3.3-11.1l-4.2-26.1c-1-4.8-4.7-8.1-9.2-8.1
	c-1.9,0-4.7,0.6-7.7,3.8l-1.5,1.5l-1.8-1.1l-1.8-1c-3.8-1.7-8.1-2.6-13.7-2.6h-1.1c-8.9,0.1-16.6,2.6-23.2,7.2
	c-2.5-4.3-6.9-7.4-11.8-7.6l-0.7,0c-2.7,0-5.1,0.7-7,1.8c-1.5-0.6-3.3-0.9-5.6-0.9l-14.4,0c-8.1,0-10.4,4.4-10.9,6.9
	c-0.5,2-0.8,7.2,6.3,10.7l0.9,0.5l0,11.1l-9.7-18.1c-4.7-10-10.9-11.1-13.4-11.1h0l-20,0.1l-1.7,0.9l-1.7,1.3
	c-2.6-2.4-6.1-3.8-9.5-3.9c0,0-37.7,0.1-40.3,0.1c-3.7,0-6.7,1.2-8.8,3.1c-1.8-2.1-4.3-3.3-7.1-3.3c-3,0-5.5,1.4-7.3,2.8
	c-1.7-0.9-3.2-1.5-4.5-1.8l-0.9-0.2c-1.9-0.5-4.6-1.3-7.7-1.3c-6.6,0-13.6,2.4-18.2,5.9c-1.3-2.1-4.1-4.6-10.2-4.6l-14.4,0
	c-9.1,0-10.8,5.7-11.1,7.5l0,2.4l-0.4-0.5c-4.9-7.6-11.5-9-12.8-9.2l-0.6-0.1l-18.8,0l-1.5,0.2c-1.7,0.4-3.1,1.1-4.4,1.9
	c-2.7-2.1-6-3.3-9.3-3.4c0,0-54.4,0.1-57.2,0.1c-4.3,0-10.9,2.7-12.2,8.7c-0.6,2.8,0.1,6.5,3.5,9.2c-1.6,4.8-3.5,10.5-5.2,15.9
	l-4.4-14.9c3.9-3.7,4.2-7.4,3.6-10c-1.3-6.3-7.8-8.1-9.8-8.5l-0.8-0.2l-23,0.1l-1.5,0.2c-3.2,0.7-5.8,2.3-7.4,4.5l-1.9-2.4l-2.2-2.1
	l-31.7-0.2c-4.2,0.3-7.6,2.1-9.9,3.4c-1.5-0.8-3.7-1.7-6.6-2.6c-5.8-1.7-9.3-2.4-14.8-2.4h0c-9.7,0.1-17.6,3.1-25,9.4
	c-7.9,6.7-11.8,15.2-11.8,25.2c0,8.2,5.3,19.8,11.8,25.9c2.3,2,5.1,4.1,8.3,6.1c-1.7-0.3-3-0.3-3.5-0.3h0
	C32.6,317,25.9,334,25.6,342.8c-1.6,30.3,20.9,44.3,32.8,47.5c6.7,2,13.4,3,19.7,3h0.2c11.1,0,21.5-3.1,31.6-9.3
	c5.8-3.6,17.1-12.3,21.3-27.9c2.1,8.5,7.2,9.8,10,9.8c5.8,0,9.2-5.3,10.4-7.6l0.5-1.1c3.5-11,8.4-25.8,12.1-36.9
	c4.3,13,7.9,24.4,8.3,26.5c1.3,8.1,7.5,8.5,8.7,8.5c3.3,0,6.5-2,8.5-5.5l0.7-1.4c1.5-4.5,10.6-30.8,17.6-51.4l0.1,30.4l-0.7,1.6
	c-2,1.7-8.3,6.9-6,13.3c1,2.7,3.7,5.5,8.4,5.5l2.1-0.2c35.7-5.1,48.2-8.7,52.9-11.6c1.6,1.2,3.8,1.9,6.2,2.1l0.7,0l20.4-2l1-0.2
	c5-1.2,8.2-4.4,8.4-8.5c0.2-3-1-7.1-7.8-9.6l-1.5-0.7l-0.1-18.9l25.4,33.5l0.6,0.7c1.1,1.1,4.3,4.4,8.7,4.4c2.4,0,4.6-0.9,6.2-2.6
	l1.7-2.4c1.7,3.7,4.8,6,8.5,6h0c2.8,0,5.3-1.2,7.4-3.6l0.2,0.1c1.4,0.6,8.4,3.6,13.4,3.6l0.9,0c7.1-0.5,12.2-1.7,17.9-6
	c0.7,1.9,3,5.9,10.4,5.9h0c12.1-0.4,23.4,1,32.2,2c5.1,0.6,9.1,1.1,12.1,1.1c1.5,0,2.8-0.2,3.9-0.5c1.3,2.5,4.2,5.1,10.7,5.7
	l13.6,2.3l2.1,0.1c6.9,0,8.9-4.2,9.5-6c0.7-2.2,0.9-6.6-4.9-10.3l-0.3-0.2l0-19.3l23.6,42.1l1.2,1.6c1.1,1.1,4.3,4.3,8.7,4.3
	l3.4-0.7c5.6,18.5,21.4,27.8,30.8,30.3c6.8,2,13.4,3,19.8,3h0.1c11-0.1,21.6-3.2,31.6-9.3C613.1,371.2,615.9,352.4,614.6,338.9"/>
<path class="st2" d="M108.6,290l-2.8-21.8c2.5-6.1,6.5-1,6.5-1s24.1,77.3,26.2,86.7c2.1,9.3,6.4,0.9,6.4,0.9s14.8-46,17.3-51.9
	c2.4-6,4-0.4,4-0.4s13,38.3,13.8,43c0.8,4.8,3.4,0.4,3.4,0.4s24-69.7,25.7-75.7c1.7-6,3.8-5.3,3.8-5.3c2.3-0.5,2.6,3.2,2.6,3.2
	l0.2,58.8c0.4,4.9-3.4,7.9-3.4,7.9s-7.5,6.3-1.3,5.4c6.2-0.9,49.2-7.8,50.2-10.5c1-2.7,2.9-13.1,3.5-16.8c0.6-3.7-0.1-5-1.6-4.6
	c-1.5,0.4-2.3,4.1-2.3,4.1c-4.3,11.8-17.2,17.6-23.1,17.5c-5.9-0.1-5.7-5.4-5.7-5.4s-0.2-17.2-0.1-18.8c0.2-1.6,1.7-5.6,7.2-5.8
	c5.5-0.2,8.3,4.4,8.5,6.7c0.2,2.3,0.8,6,3.4,6.1c2.6,0.2,3.6-2.6,3.6-2.6l-0.1-23.9c0,0,0.2-5.8-2.8-5.4c-3.1,0.4-4.4,4.4-4.5,6.7
	c-0.2,2.3-3.2,5.8-8.9,6c-5.7,0.2-5.9-4.2-5.9-4.2s-0.2-14.4-0.2-17.4c0-3,3.6-5.5,3.6-5.5l9-0.3c12.1,2.1,20.3,16.6,20.3,16.6
	c5.8,3.8,2.8-4.9,2.8-4.9l-4.4-14.2c-1.2-3.9-6.3-4-6.3-4s-54.4,0.1-57.2,0.1c-2.8,0-7.6,3-3,5.1c4.2,1.9,1.7,6.9,1.7,6.9
	s-10.1,30.8-11.4,34.3c-1.3,3.5-3,0.4-3,0.4l-10.3-34.8c-1.5-3.5,1.3-4.9,1.3-4.9c6.8-5-1.3-6.7-1.3-6.7l-22.2,0.1
	c0,0-3.4,0.7-3.2,2.8c0.2,2.1,3.8,2.8,3.8,2.8c2.7,0.3,4.2,3.9,4.2,3.9l3.9,13c0,0-9.2,30.8-11.1,33.8c-1.9,3-3.1,0.5-3.1,0.5
	s-13.4-42.5-13.8-45.3c-0.4-2.8,0.9-3.2,0.9-3.2c1.9-2.1,3.8-2.5,3.8-4.4c0-2.3-1.5-3.8-1.5-3.8l-28-0.2c-4.9,0.4-8.4,4.3-10.7,4.3
	c-0.8,0-2.5-2-8.4-3.7c-5.9-1.7-8.4-2.2-12.6-2.1c-7.9,0.1-14.1,2.4-20.2,7.6c-6.1,5.2-9.2,11.7-9.1,19.5c0,5.8,4.1,15.4,9.3,20.3
	c2.8,2.5,6.6,5.1,11.3,7.6l15.7,8.1c9,4.7,15.5,8.8,18.6,10.8c5.1,3.3,8.7,10.9,8.9,15.9c0.8,17.9-9.8,24.6-15,27.7
	c-7.4,4.4-14,5.3-18.3,4.6c-21.7-3.8-26.2-19.9-25.7-22.5c0.5-2.6-0.5-8.9,7-10.8c7.6-1.9,9.1-9.2,9.1-9.2
	c1.2-13.4-11.7-13.3-11.7-13.3c-21.7,0.3-22.4,19-22.4,19c-1.7,32.2,27.4,39.8,27.4,39.8c6.2,1.8,12.1,2.7,17.8,2.7
	c10.3-0.1,18.7-2.6,27.7-8.2c7.7-4.8,21.4-16.5,19.1-39.2c-0.6-6-3.2-14.1-7.3-18.5c-4.1-4.4-10.7-9.8-20.8-15l-15.4-7.9
	c-6-3.1-11.6-5.8-14.5-8.6c-2.9-2.8-4.3-6.2-4.3-10.2c0-4.4,0.7-7.4,4.1-10.3c2.5-2.1,4-2.7,9-2.9c5-0.2,7.7,1.3,14,6
	c4.8,3.5,11,13,13.3,18.3C103,289.1,106.8,292.9,108.6,290"/>
<path class="st2" d="M394,265.1c3.8,2.6,3.6,5.9,3.6,5.9l0.1,45.7c0.5,4.4-3.5,7.4-3.5,7.4s-8.3,6.6-0.7,6.3
	c24.8-0.8,46.8,5.5,47.9,2.1c1.3-4,3-10.5,3.7-13.9c1.7-8.1,0.2-9.5-1.7-9.5c-1.5,0-5.4,9-5.4,9c-3.9,11-15.5,8.1-20.8,8
	c-5.3-0.1-4.7-5.8-4.7-5.8s-0.2-16-0.1-17.5c0.2-1.5,1.5-5.2,6.5-5.4c5-0.2,5.6,6,5.8,8.1c0.2,2.1,0.8,4.9,3.2,5.1
	c3.8,0.3,3.8-3.5,3.8-3.5l-0.1-21c0,0,0.4-5-3.1-5c-3.2,0-3.4,4.1-3.6,6.2c-0.2,2.1-1.6,4-6.8,4.2c-5.2,0.2-5.8-4.4-5.8-4.4
	l-0.4-15.8c-0.2-5.5,4-5.6,4-5.6l7.6,0c13.4,2.4,17,15.8,17,15.8c4.5,4.6,2.5-4.6,2.5-4.6l-2.1-13.2c-1-3.6-5.7-3.7-5.7-3.7
	s-37.7,0.1-40.3,0.1C395,259.8,386.3,259.9,394,265.1"/>
<path class="st2" d="M583.3,261.4c-1.5,1.6-4.1,4.4-6.4,4.4c-3.2-0.1-6.6-2.7-7.6-3.2c-3.4-1.6-7.3-1.9-11.5-1.8
	c-9.3,0.1-16.9,3.2-22.7,8.7c-3.8,3.5-6.7,9.2-6.6,16.9c0,5.9,4.1,15.5,9.3,20.3c2.8,2.6,6.6,5.1,11.3,7.6l15.7,8.2
	c9,4.7,15.5,8.7,18.6,10.8c5.1,3.3,8.6,9.8,8.9,14.8c1.1,19.7-12.2,25.9-16,28.3c-3.2,2-12.4,5-17.4,4c-21-3.9-26.2-19.9-25.7-22.5
	c0.5-2.6-0.5-8.9,7-10.8c7.6-1.9,9.1-9.2,9.1-9.2c1.2-13.4-11.7-13.3-11.7-13.3c-21.7,0.3-22.4,19-22.4,19
	c-1.7,32.2,27.3,39.9,27.3,39.9c6.2,1.8,12.1,2.7,17.7,2.7c11.3-0.1,20.4-3.7,27.7-8.2c7.7-4.8,21.4-15.4,19.1-38.1
	c-0.6-6-3.2-14.1-7.3-18.5c-4.1-4.4-10.8-9.8-20.9-15l-15.4-7.9c-6-3.1-11.6-5.8-14.5-8.6c-2.9-2.8-3.6-6.2-4.3-10.2
	c-0.3-1.8,1.6-6.9,3.3-8.7c2.3-2.3,8.1-4.5,11.2-4.7c3.6-0.1,9.3,2.7,12.6,5.1c4.8,3.5,12.9,12.6,15.5,20.4c0,0,4,5.1,4-4.8l-4-24.5
	C587.2,262.3,586.3,258.2,583.3,261.4"/>
<path class="st2" d="M291.4,328.7l-19.7,2c0,0-6.5-0.5-0.2-4.4c5.3-3.3,4.7-7.2,4.7-7.2l-0.2-50.4c0,0-0.2-1.3-4.8-4.7
	c-3.5-2.6,1-3.5,1-3.5l18.2,0c0,0,4.3,0.7,7.6,5.8l18,24.1c0,0,2.5,3.1,2.5-2.6l-0.1-18.1c0,0,0-4.6-3.8-6c-3.8-1.4-3.1-3.3,1.2-3.4
	l14.4,0c0,0,7.4,0,1.5,3.6c0,0-3.3,1.4-3.3,5.8l0.2,56.8c0,0,0,5.9-5.1,0.7l-34.5-45.4c0,0-4.3-4.7-4.5,0.7l0.1,36.1
	c0,0,0.7,4.3,6.4,6.4C297.4,327.3,291.4,328.7,291.4,328.7"/>
<path class="st2" d="M467,341.1l-13.1-2.3c0,0-11.4-1-1.4-5.4c3.2-1.4,2.7-6.2,2.7-6.2l-0.2-59.3c0,0-0.5-2.2-4.6-3.3
	c-4.2-1.1-0.5-3.2-0.5-3.2l18.1,0c0,0,3.3-0.3,6.6,6.8l20.3,38c0,0,3.8,3,3.8-2.6l-0.1-32.8c0,0,0.9-3.1-5.1-6
	c-3.6-1.8-3.1-3.3,1.3-3.3l14.4,0c0,0,7.4,0,1.5,3.6c0,0-3.4,1.3-3.3,5.8l0.2,80c0,0,0,5.9-5,0.7l-34.6-61.6c0,0-3.6-6.8-3.3,3.5
	l0.1,40c0,0-0.2,2.9,3.8,5.5C473.7,341.7,467,341.1,467,341.1"/>
<path class="st2" d="M346.4,327.5c0.4-0.7,1.3-1.1,2.6-1.1c0.5,0,1.5-0.5,5.1,1c2.8,1.2,8.2,3.2,10.8,3c6.8-0.5,10.2-1.5,14.6-5
	c4.4-3.5,7.5-9.5,7.5-14.7c0-3.9-1.9-7.7-4.4-10.6c-2.5-2.8-5.3-6.2-11.4-9.6l-8-5.4c-3.7-2-6.2-3.8-8-5.6c-1.7-1.8-4.1-3.7-4.1-6.2
	c0-2.9,0.8-5.2,2.1-6.5c1.5-1.4,4.1-2.5,6.3-2.5c3.9,0,5.6,1.1,7.2,2.2c9.2,6,14.4,13.2,16,15c2.6,3,1.7-1.2,1.7-1.2l-3.7-19.6
	c-1.8-3.5-5.8,1.3-5.8,1.3c-0.5,0.6-3.1,1.6-4.8,0.5c-0.4-0.2-3-1.9-4.8-2.3c-1.9-0.5-4.2-1.3-6.7-1.3c-6.1,0-12.5,2.6-15.1,5.4
	c-1.8,1.9-5.8,7.9-5.8,12.9c0,3.8,2.4,9.6,5.6,12.3c1.8,1.5,2.4,2.3,5.3,4l9.9,7c5.5,3,8.4,4.8,10.1,6.4c5.3,4.8,4.5,7.3,4.6,8.9
	c0.1,2.4-1,4.4-2.9,5.8c-2.9,2.1-6.3,3.7-9.9,2.8c0,0-6.2,0-14.6-10.2c0,0-2-2.2-5.4-6.9c0,0-4.3-4.7-3.4,0.8
	c0.9,5.3,4.4,19.5,4.4,19.5S342.9,333.8,346.4,327.5"/>
<path class="st2" d="M514.7,265.5c0,0,2.3-5.4,7.6-5.1c7.5,0.4,13,15.8-6.2,19.7c0,0,6-4.7,1.7-6.9
	C515.1,271.7,514.1,268.8,514.7,265.5"/>
</svg>
